<?xml version="1.0" standalone="no"?>
<!DOCTYPE svg PUBLIC "-//W3C//DTD SVG 20010904//EN"
 "http://www.w3.org/TR/2001/REC-SVG-20010904/DTD/svg10.dtd">
<svg version="1.0" xmlns="http://www.w3.org/2000/svg"
 width="547.000000pt" height="185.000000pt" viewBox="0 0 547.000000 185.000000"
 preserveAspectRatio="xMidYMid meet">

<g transform="translate(0.000000,185.000000) scale(0.100000,-0.100000)"
fill="#ffffff" stroke="none">
<path d="M3295 1740 c-222 -45 -410 -240 -436 -455 -7 -51 -6 -110 1 -174 14
-132 57 -220 154 -316 247 -243 640 -213 849 65 26 34 47 66 47 70 0 10 -63
31 -170 58 l-76 19 -42 -37 c-69 -61 -119 -80 -215 -80 -69 0 -92 4 -135 26
-106 52 -152 140 -152 283 0 100 17 145 76 211 59 65 97 80 206 80 101 0 159
-19 208 -65 l26 -25 114 31 c63 17 119 34 123 39 16 15 -4 50 -67 114 -126
127 -335 191 -511 156z"/>
<path d="M160 1610 l0 -120 160 0 160 0 0 -420 0 -420 130 0 130 0 0 420 0
420 165 0 165 0 0 120 0 120 -455 0 -455 0 0 -120z"/>
<path d="M1600 1190 l0 -540 395 0 395 0 0 120 0 120 -265 0 -265 0 0 100 0
100 205 0 205 0 0 110 0 110 -205 0 -205 0 0 90 0 90 263 2 262 3 3 85 c2 47
0 100 -3 118 l-6 32 -389 0 -390 0 0 -540z"/>
<path d="M4310 1190 l0 -540 125 0 125 0 0 210 0 210 205 0 205 0 0 -210 0
-210 130 0 130 0 0 540 0 540 -130 0 -130 0 0 -210 0 -210 -205 0 -205 0 0
210 0 210 -125 0 -125 0 0 -540z"/>
<path d="M2643 360 c-29 -12 -53 -60 -53 -105 0 -102 91 -146 155 -75 15 16
20 36 20 77 0 49 -3 58 -33 84 -34 30 -52 34 -89 19z m72 -35 c35 -34 35 -106
0 -140 -31 -32 -40 -31 -76 4 -45 46 -38 130 14 151 32 13 36 12 62 -15z"/>
<path d="M2262 348 c-17 -17 -15 -56 6 -73 9 -8 32 -25 51 -37 19 -13 36 -28
38 -34 6 -17 -27 -45 -46 -40 -9 3 -29 8 -46 12 -27 6 -29 5 -15 -10 28 -29
73 -31 106 -3 25 22 27 28 19 53 -6 17 -28 38 -55 54 -60 35 -62 65 -5 66 22
0 42 5 45 10 8 14 -83 17 -98 2z"/>
<path d="M2410 350 c0 -5 14 -10 30 -10 l30 0 0 -90 c0 -53 4 -90 10 -90 6 0
10 37 10 90 l0 90 30 0 c17 0 30 5 30 10 0 6 -30 10 -70 10 -40 0 -70 -4 -70
-10z"/>
<path d="M2822 258 c3 -103 18 -136 28 -62 3 21 10 39 16 41 7 2 29 -17 49
-42 44 -53 57 -52 26 0 l-21 37 20 25 c26 33 26 79 1 93 -11 5 -43 10 -71 10
l-51 0 3 -102z m108 67 c17 -20 3 -54 -26 -61 -39 -10 -54 2 -54 41 0 33 2 35
34 35 18 0 39 -7 46 -15z"/>
<path d="M3020 255 l0 -105 60 0 c33 0 60 4 60 10 0 6 -22 10 -50 10 l-50 0 0
40 0 40 40 0 c51 0 53 18 3 22 -35 3 -38 6 -41 36 -3 32 -3 32 42 32 25 0 46
5 46 10 0 6 -25 10 -55 10 l-55 0 0 -105z"/>
<path d="M145 261 c-39 -6 -38 -7 24 -14 83 -9 1828 -9 1912 0 l64 7 -45 7
c-55 9 -1899 9 -1955 0z"/>
<path d="M3275 261 c-39 -6 -38 -7 24 -14 83 -9 1828 -9 1912 0 l64 7 -45 7
c-55 9 -1899 9 -1955 0z"/>
</g>
</svg>
